<?xml version="1.0" encoding="UTF-8" standalone="no"?>
<!-- Created with Inkscape (http://www.inkscape.org/) -->

<svg
   xmlns:dc="http://purl.org/dc/elements/1.1/"
   xmlns:cc="http://creativecommons.org/ns#"
   xmlns:rdf="http://www.w3.org/1999/02/22-rdf-syntax-ns#"
   xmlns:svg="http://www.w3.org/2000/svg"
   xmlns="http://www.w3.org/2000/svg"
   xmlns:sodipodi="http://sodipodi.sourceforge.net/DTD/sodipodi-0.dtd"
   xmlns:inkscape="http://www.inkscape.org/namespaces/inkscape"
   width="355.71432"
   height="355.71432"
   id="svg2"
   version="1.1"
   inkscape:version="0.48.3.1 r9886"
   sodipodi:docname="Neues Dokument 1">
  <defs
     id="defs4" />
  <sodipodi:namedview
     id="base"
     pagecolor="#ffffff"
     bordercolor="#666666"
     borderopacity="1.0"
     inkscape:pageopacity="0.0"
     inkscape:pageshadow="2"
     inkscape:zoom="1.4"
     inkscape:cx="-25.52057"
     inkscape:cy="188.29565"
     inkscape:document-units="px"
     inkscape:current-layer="layer1"
     showgrid="false"
     fit-margin-top="0"
     fit-margin-left="0"
     fit-margin-right="0"
     fit-margin-bottom="0"
     inkscape:window-width="2048"
     inkscape:window-height="1096"
     inkscape:window-x="0"
     inkscape:window-y="27"
     inkscape:window-maximized="1" />
  <metadata
     id="metadata7">
    <rdf:RDF>
      <cc:Work
         rdf:about="">
        <dc:format>image/svg+xml</dc:format>
        <dc:type
           rdf:resource="http://purl.org/dc/dcmitype/StillImage" />
        <dc:title></dc:title>
      </cc:Work>
    </rdf:RDF>
  </metadata>
  <g
     inkscape:label="Ebene 1"
     inkscape:groupmode="layer"
     id="layer1"
     transform="translate(-57.142864,-55.933617)">
    <rect
       style="opacity:0.94378046;fill:#000000;fill-opacity:1;stroke:none"
       id="rect2987"
       width="355.71432"
       height="355.71432"
       x="57.142864"
       y="55.933617" />
    <g
       id="g4288"
       transform="translate(2.2142635,0.52869405)">
      <path
         transform="matrix(0.5,0,0,0.5,133.00005,-1.3119861)"
         d="m -61.428574,163.79076 c 0,22.09139 -17.90861,40 -39.999996,40 -22.09139,0 -40,-17.90861 -40,-40 0,-22.09139 17.90861,-40 40,-40 22.091386,0 39.999996,17.90861 39.999996,40 z"
         sodipodi:ry="40"
         sodipodi:rx="40"
         sodipodi:cy="163.79076"
         sodipodi:cx="-101.42857"
         id="path2993"
         style="fill:#ffffff;fill-opacity:1;stroke:none"
         sodipodi:type="arc" />
      <path
         transform="matrix(0.5,0,0,0.5,176.00005,-1.3119861)"
         d="m -61.428574,163.79076 c 0,22.09139 -17.90861,40 -39.999996,40 -22.09139,0 -40,-17.90861 -40,-40 0,-22.09139 17.90861,-40 40,-40 22.091386,0 39.999996,17.90861 39.999996,40 z"
         sodipodi:ry="40"
         sodipodi:rx="40"
         sodipodi:cy="163.79076"
         sodipodi:cx="-101.42857"
         id="path2993-2"
         style="fill:#ffffff;fill-opacity:1;stroke:none"
         sodipodi:type="arc" />
      <path
         transform="matrix(0.5,0,0,0.5,262.00005,-1.3119861)"
         d="m -61.428574,163.79076 c 0,22.09139 -17.90861,40 -39.999996,40 -22.09139,0 -40,-17.90861 -40,-40 0,-22.09139 17.90861,-40 40,-40 22.091386,0 39.999996,17.90861 39.999996,40 z"
         sodipodi:ry="40"
         sodipodi:rx="40"
         sodipodi:cy="163.79076"
         sodipodi:cx="-101.42857"
         id="path2993-3"
         style="fill:#ffffff;fill-opacity:1;stroke:none"
         sodipodi:type="arc" />
      <path
         transform="matrix(0.5,0,0,0.5,219.00005,-1.3119861)"
         d="m -61.428574,163.79076 c 0,22.09139 -17.90861,40 -39.999996,40 -22.09139,0 -40,-17.90861 -40,-40 0,-22.09139 17.90861,-40 40,-40 22.091386,0 39.999996,17.90861 39.999996,40 z"
         sodipodi:ry="40"
         sodipodi:rx="40"
         sodipodi:cy="163.79076"
         sodipodi:cx="-101.42857"
         id="path2993-33"
         style="fill:#ffffff;fill-opacity:1;stroke:none"
         sodipodi:type="arc" />
      <path
         transform="matrix(0.5,0,0,0.5,305.00005,-1.3119861)"
         d="m -61.428574,163.79076 c 0,22.09139 -17.90861,40 -39.999996,40 -22.09139,0 -40,-17.90861 -40,-40 0,-22.09139 17.90861,-40 40,-40 22.091386,0 39.999996,17.90861 39.999996,40 z"
         sodipodi:ry="40"
         sodipodi:rx="40"
         sodipodi:cy="163.79076"
         sodipodi:cx="-101.42857"
         id="path2993-7"
         style="fill:#ffffff;fill-opacity:1;stroke:none"
         sodipodi:type="arc" />
      <path
         transform="matrix(0.5,0,0,0.5,348.00005,-1.3119861)"
         d="m -61.428574,163.79076 c 0,22.09139 -17.90861,40 -39.999996,40 -22.09139,0 -40,-17.90861 -40,-40 0,-22.09139 17.90861,-40 40,-40 22.091386,0 39.999996,17.90861 39.999996,40 z"
         sodipodi:ry="40"
         sodipodi:rx="40"
         sodipodi:cy="163.79076"
         sodipodi:cx="-101.42857"
         id="path2993-6"
         style="fill:#ffffff;fill-opacity:1;stroke:none"
         sodipodi:type="arc" />
      <path
         transform="matrix(0.5,0,0,0.5,434.00005,-1.3119861)"
         d="m -61.428574,163.79076 c 0,22.09139 -17.90861,40 -39.999996,40 -22.09139,0 -40,-17.90861 -40,-40 0,-22.09139 17.90861,-40 40,-40 22.091386,0 39.999996,17.90861 39.999996,40 z"
         sodipodi:ry="40"
         sodipodi:rx="40"
         sodipodi:cy="163.79076"
         sodipodi:cx="-101.42857"
         id="path2993-0"
         style="fill:#ffffff;fill-opacity:1;stroke:none"
         sodipodi:type="arc" />
      <path
         transform="matrix(0.5,0,0,0.5,391.00005,-1.3119861)"
         d="m -61.428574,163.79076 c 0,22.09139 -17.90861,40 -39.999996,40 -22.09139,0 -40,-17.90861 -40,-40 0,-22.09139 17.90861,-40 40,-40 22.091386,0 39.999996,17.90861 39.999996,40 z"
         sodipodi:ry="40"
         sodipodi:rx="40"
         sodipodi:cy="163.79076"
         sodipodi:cx="-101.42857"
         id="path2993-75"
         style="fill:#ffffff;fill-opacity:1;stroke:none"
         sodipodi:type="arc" />
      <path
         transform="matrix(0.5,0,0,0.5,133.00005,85.932982)"
         d="m -61.428574,163.79076 c 0,22.09139 -17.90861,40 -39.999996,40 -22.09139,0 -40,-17.90861 -40,-40 0,-22.09139 17.90861,-40 40,-40 22.091386,0 39.999996,17.90861 39.999996,40 z"
         sodipodi:ry="40"
         sodipodi:rx="40"
         sodipodi:cy="163.79076"
         sodipodi:cx="-101.42857"
         id="path2993-8"
         style="fill:#ffffff;fill-opacity:1;stroke:none"
         sodipodi:type="arc" />
      <path
         transform="matrix(0.5,0,0,0.5,176.00005,85.932982)"
         d="m -61.428574,163.79076 c 0,22.09139 -17.90861,40 -39.999996,40 -22.09139,0 -40,-17.90861 -40,-40 0,-22.09139 17.90861,-40 40,-40 22.091386,0 39.999996,17.90861 39.999996,40 z"
         sodipodi:ry="40"
         sodipodi:rx="40"
         sodipodi:cy="163.79076"
         sodipodi:cx="-101.42857"
         id="path2993-2-9"
         style="fill:#ffffff;fill-opacity:1;stroke:none"
         sodipodi:type="arc" />
      <path
         transform="matrix(0.5,0,0,0.5,262.00005,85.932982)"
         d="m -61.428574,163.79076 c 0,22.09139 -17.90861,40 -39.999996,40 -22.09139,0 -40,-17.90861 -40,-40 0,-22.09139 17.90861,-40 40,-40 22.091386,0 39.999996,17.90861 39.999996,40 z"
         sodipodi:ry="40"
         sodipodi:rx="40"
         sodipodi:cy="163.79076"
         sodipodi:cx="-101.42857"
         id="path2993-3-1"
         style="fill:#ffffff;fill-opacity:1;stroke:none"
         sodipodi:type="arc" />
      <path
         transform="matrix(0.5,0,0,0.5,219.00005,85.932982)"
         d="m -61.428574,163.79076 c 0,22.09139 -17.90861,40 -39.999996,40 -22.09139,0 -40,-17.90861 -40,-40 0,-22.09139 17.90861,-40 40,-40 22.091386,0 39.999996,17.90861 39.999996,40 z"
         sodipodi:ry="40"
         sodipodi:rx="40"
         sodipodi:cy="163.79076"
         sodipodi:cx="-101.42857"
         id="path2993-33-3"
         style="fill:#ffffff;fill-opacity:1;stroke:none"
         sodipodi:type="arc" />
      <path
         transform="matrix(0.5,0,0,0.5,305.00005,85.932982)"
         d="m -61.428574,163.79076 c 0,22.09139 -17.90861,40 -39.999996,40 -22.09139,0 -40,-17.90861 -40,-40 0,-22.09139 17.90861,-40 40,-40 22.091386,0 39.999996,17.90861 39.999996,40 z"
         sodipodi:ry="40"
         sodipodi:rx="40"
         sodipodi:cy="163.79076"
         sodipodi:cx="-101.42857"
         id="path2993-7-5"
         style="fill:#ffffff;fill-opacity:1;stroke:none"
         sodipodi:type="arc" />
      <path
         transform="matrix(0.5,0,0,0.5,348.00005,85.932982)"
         d="m -61.428574,163.79076 c 0,22.09139 -17.90861,40 -39.999996,40 -22.09139,0 -40,-17.90861 -40,-40 0,-22.09139 17.90861,-40 40,-40 22.091386,0 39.999996,17.90861 39.999996,40 z"
         sodipodi:ry="40"
         sodipodi:rx="40"
         sodipodi:cy="163.79076"
         sodipodi:cx="-101.42857"
         id="path2993-6-8"
         style="fill:#ffffff;fill-opacity:1;stroke:none"
         sodipodi:type="arc" />
      <path
         transform="matrix(0.5,0,0,0.5,434.00005,85.932982)"
         d="m -61.428574,163.79076 c 0,22.09139 -17.90861,40 -39.999996,40 -22.09139,0 -40,-17.90861 -40,-40 0,-22.09139 17.90861,-40 40,-40 22.091386,0 39.999996,17.90861 39.999996,40 z"
         sodipodi:ry="40"
         sodipodi:rx="40"
         sodipodi:cy="163.79076"
         sodipodi:cx="-101.42857"
         id="path2993-0-7"
         style="fill:#ffffff;fill-opacity:1;stroke:none"
         sodipodi:type="arc" />
      <path
         transform="matrix(0.5,0,0,0.5,391.00005,85.932982)"
         d="m -61.428574,163.79076 c 0,22.09139 -17.90861,40 -39.999996,40 -22.09139,0 -40,-17.90861 -40,-40 0,-22.09139 17.90861,-40 40,-40 22.091386,0 39.999996,17.90861 39.999996,40 z"
         sodipodi:ry="40"
         sodipodi:rx="40"
         sodipodi:cy="163.79076"
         sodipodi:cx="-101.42857"
         id="path2993-75-2"
         style="fill:#ffffff;fill-opacity:1;stroke:none"
         sodipodi:type="arc" />
      <path
         transform="matrix(0.5,0,0,0.5,133.00005,173.17795)"
         d="m -61.428574,163.79076 c 0,22.09139 -17.90861,40 -39.999996,40 -22.09139,0 -40,-17.90861 -40,-40 0,-22.09139 17.90861,-40 40,-40 22.091386,0 39.999996,17.90861 39.999996,40 z"
         sodipodi:ry="40"
         sodipodi:rx="40"
         sodipodi:cy="163.79076"
         sodipodi:cx="-101.42857"
         id="path2993-9"
         style="fill:#ffffff;fill-opacity:1;stroke:none"
         sodipodi:type="arc" />
      <path
         transform="matrix(0.5,0,0,0.5,176.00005,173.17795)"
         d="m -61.428574,163.79076 c 0,22.09139 -17.90861,40 -39.999996,40 -22.09139,0 -40,-17.90861 -40,-40 0,-22.09139 17.90861,-40 40,-40 22.091386,0 39.999996,17.90861 39.999996,40 z"
         sodipodi:ry="40"
         sodipodi:rx="40"
         sodipodi:cy="163.79076"
         sodipodi:cx="-101.42857"
         id="path2993-2-1"
         style="fill:#ffffff;fill-opacity:1;stroke:none"
         sodipodi:type="arc" />
      <path
         transform="matrix(0.5,0,0,0.5,262.00005,173.17795)"
         d="m -61.428574,163.79076 c 0,22.09139 -17.90861,40 -39.999996,40 -22.09139,0 -40,-17.90861 -40,-40 0,-22.09139 17.90861,-40 40,-40 22.091386,0 39.999996,17.90861 39.999996,40 z"
         sodipodi:ry="40"
         sodipodi:rx="40"
         sodipodi:cy="163.79076"
         sodipodi:cx="-101.42857"
         id="path2993-3-0"
         style="fill:#ffffff;fill-opacity:1;stroke:none"
         sodipodi:type="arc" />
      <path
         transform="matrix(0.5,0,0,0.5,219.00005,173.17795)"
         d="m -61.428574,163.79076 c 0,22.09139 -17.90861,40 -39.999996,40 -22.09139,0 -40,-17.90861 -40,-40 0,-22.09139 17.90861,-40 40,-40 22.091386,0 39.999996,17.90861 39.999996,40 z"
         sodipodi:ry="40"
         sodipodi:rx="40"
         sodipodi:cy="163.79076"
         sodipodi:cx="-101.42857"
         id="path2993-33-2"
         style="fill:#ffffff;fill-opacity:1;stroke:none"
         sodipodi:type="arc" />
      <path
         transform="matrix(0.5,0,0,0.5,305.00005,173.17795)"
         d="m -61.428574,163.79076 c 0,22.09139 -17.90861,40 -39.999996,40 -22.09139,0 -40,-17.90861 -40,-40 0,-22.09139 17.90861,-40 40,-40 22.091386,0 39.999996,17.90861 39.999996,40 z"
         sodipodi:ry="40"
         sodipodi:rx="40"
         sodipodi:cy="163.79076"
         sodipodi:cx="-101.42857"
         id="path2993-7-0"
         style="fill:#ffffff;fill-opacity:1;stroke:none"
         sodipodi:type="arc" />
      <path
         transform="matrix(0.5,0,0,0.5,348.00005,173.17795)"
         d="m -61.428574,163.79076 c 0,22.09139 -17.90861,40 -39.999996,40 -22.09139,0 -40,-17.90861 -40,-40 0,-22.09139 17.90861,-40 40,-40 22.091386,0 39.999996,17.90861 39.999996,40 z"
         sodipodi:ry="40"
         sodipodi:rx="40"
         sodipodi:cy="163.79076"
         sodipodi:cx="-101.42857"
         id="path2993-6-5"
         style="fill:#ffffff;fill-opacity:1;stroke:none"
         sodipodi:type="arc" />
      <path
         transform="matrix(0.5,0,0,0.5,434.00005,173.17795)"
         d="m -61.428574,163.79076 c 0,22.09139 -17.90861,40 -39.999996,40 -22.09139,0 -40,-17.90861 -40,-40 0,-22.09139 17.90861,-40 40,-40 22.091386,0 39.999996,17.90861 39.999996,40 z"
         sodipodi:ry="40"
         sodipodi:rx="40"
         sodipodi:cy="163.79076"
         sodipodi:cx="-101.42857"
         id="path2993-0-0"
         style="fill:#ffffff;fill-opacity:1;stroke:none"
         sodipodi:type="arc" />
      <path
         transform="matrix(0.5,0,0,0.5,391.00005,173.17795)"
         d="m -61.428574,163.79076 c 0,22.09139 -17.90861,40 -39.999996,40 -22.09139,0 -40,-17.90861 -40,-40 0,-22.09139 17.90861,-40 40,-40 22.091386,0 39.999996,17.90861 39.999996,40 z"
         sodipodi:ry="40"
         sodipodi:rx="40"
         sodipodi:cy="163.79076"
         sodipodi:cx="-101.42857"
         id="path2993-75-23"
         style="fill:#ffffff;fill-opacity:1;stroke:none"
         sodipodi:type="arc" />
      <path
         transform="matrix(0.5,0,0,0.5,133.00005,216.80044)"
         d="m -61.428574,163.79076 c 0,22.09139 -17.90861,40 -39.999996,40 -22.09139,0 -40,-17.90861 -40,-40 0,-22.09139 17.90861,-40 40,-40 22.091386,0 39.999996,17.90861 39.999996,40 z"
         sodipodi:ry="40"
         sodipodi:rx="40"
         sodipodi:cy="163.79076"
         sodipodi:cx="-101.42857"
         id="path2993-81"
         style="fill:#ffffff;fill-opacity:1;stroke:none"
         sodipodi:type="arc" />
      <path
         transform="matrix(0.5,0,0,0.5,176.00005,216.80044)"
         d="m -61.428574,163.79076 c 0,22.09139 -17.90861,40 -39.999996,40 -22.09139,0 -40,-17.90861 -40,-40 0,-22.09139 17.90861,-40 40,-40 22.091386,0 39.999996,17.90861 39.999996,40 z"
         sodipodi:ry="40"
         sodipodi:rx="40"
         sodipodi:cy="163.79076"
         sodipodi:cx="-101.42857"
         id="path2993-2-7"
         style="fill:#ffffff;fill-opacity:1;stroke:none"
         sodipodi:type="arc" />
      <path
         transform="matrix(0.5,0,0,0.5,262.00005,216.80044)"
         d="m -61.428574,163.79076 c 0,22.09139 -17.90861,40 -39.999996,40 -22.09139,0 -40,-17.90861 -40,-40 0,-22.09139 17.90861,-40 40,-40 22.091386,0 39.999996,17.90861 39.999996,40 z"
         sodipodi:ry="40"
         sodipodi:rx="40"
         sodipodi:cy="163.79076"
         sodipodi:cx="-101.42857"
         id="path2993-3-05"
         style="fill:#ffffff;fill-opacity:1;stroke:none"
         sodipodi:type="arc" />
      <path
         transform="matrix(0.5,0,0,0.5,219.00005,216.80044)"
         d="m -61.428574,163.79076 c 0,22.09139 -17.90861,40 -39.999996,40 -22.09139,0 -40,-17.90861 -40,-40 0,-22.09139 17.90861,-40 40,-40 22.091386,0 39.999996,17.90861 39.999996,40 z"
         sodipodi:ry="40"
         sodipodi:rx="40"
         sodipodi:cy="163.79076"
         sodipodi:cx="-101.42857"
         id="path2993-33-9"
         style="fill:#ffffff;fill-opacity:1;stroke:none"
         sodipodi:type="arc" />
      <path
         transform="matrix(0.5,0,0,0.5,305.00005,216.80044)"
         d="m -61.428574,163.79076 c 0,22.09139 -17.90861,40 -39.999996,40 -22.09139,0 -40,-17.90861 -40,-40 0,-22.09139 17.90861,-40 40,-40 22.091386,0 39.999996,17.90861 39.999996,40 z"
         sodipodi:ry="40"
         sodipodi:rx="40"
         sodipodi:cy="163.79076"
         sodipodi:cx="-101.42857"
         id="path2993-7-07"
         style="fill:#ffffff;fill-opacity:1;stroke:none"
         sodipodi:type="arc" />
      <path
         transform="matrix(0.5,0,0,0.5,348.00005,216.80044)"
         d="m -61.428574,163.79076 c 0,22.09139 -17.90861,40 -39.999996,40 -22.09139,0 -40,-17.90861 -40,-40 0,-22.09139 17.90861,-40 40,-40 22.091386,0 39.999996,17.90861 39.999996,40 z"
         sodipodi:ry="40"
         sodipodi:rx="40"
         sodipodi:cy="163.79076"
         sodipodi:cx="-101.42857"
         id="path2993-6-7"
         style="fill:#ffffff;fill-opacity:1;stroke:none"
         sodipodi:type="arc" />
      <path
         transform="matrix(0.5,0,0,0.5,434.00005,216.80044)"
         d="m -61.428574,163.79076 c 0,22.09139 -17.90861,40 -39.999996,40 -22.09139,0 -40,-17.90861 -40,-40 0,-22.09139 17.90861,-40 40,-40 22.091386,0 39.999996,17.90861 39.999996,40 z"
         sodipodi:ry="40"
         sodipodi:rx="40"
         sodipodi:cy="163.79076"
         sodipodi:cx="-101.42857"
         id="path2993-0-8"
         style="fill:#ffffff;fill-opacity:1;stroke:none"
         sodipodi:type="arc" />
      <path
         transform="matrix(0.5,0,0,0.5,391.00005,216.80044)"
         d="m -61.428574,163.79076 c 0,22.09139 -17.90861,40 -39.999996,40 -22.09139,0 -40,-17.90861 -40,-40 0,-22.09139 17.90861,-40 40,-40 22.091386,0 39.999996,17.90861 39.999996,40 z"
         sodipodi:ry="40"
         sodipodi:rx="40"
         sodipodi:cy="163.79076"
         sodipodi:cx="-101.42857"
         id="path2993-75-7"
         style="fill:#ffffff;fill-opacity:1;stroke:none"
         sodipodi:type="arc" />
      <path
         transform="matrix(0.5,0,0,0.5,133.00005,129.55547)"
         d="m -61.428574,163.79076 c 0,22.09139 -17.90861,40 -39.999996,40 -22.09139,0 -40,-17.90861 -40,-40 0,-22.09139 17.90861,-40 40,-40 22.091386,0 39.999996,17.90861 39.999996,40 z"
         sodipodi:ry="40"
         sodipodi:rx="40"
         sodipodi:cy="163.79076"
         sodipodi:cx="-101.42857"
         id="path2993-20"
         style="fill:#ffffff;fill-opacity:1;stroke:none"
         sodipodi:type="arc" />
      <path
         transform="matrix(0.5,0,0,0.5,176.00005,129.55547)"
         d="m -61.428574,163.79076 c 0,22.09139 -17.90861,40 -39.999996,40 -22.09139,0 -40,-17.90861 -40,-40 0,-22.09139 17.90861,-40 40,-40 22.091386,0 39.999996,17.90861 39.999996,40 z"
         sodipodi:ry="40"
         sodipodi:rx="40"
         sodipodi:cy="163.79076"
         sodipodi:cx="-101.42857"
         id="path2993-2-0"
         style="fill:#ffffff;fill-opacity:1;stroke:none"
         sodipodi:type="arc" />
      <path
         transform="matrix(0.5,0,0,0.5,262.00005,129.55547)"
         d="m -61.428574,163.79076 c 0,22.09139 -17.90861,40 -39.999996,40 -22.09139,0 -40,-17.90861 -40,-40 0,-22.09139 17.90861,-40 40,-40 22.091386,0 39.999996,17.90861 39.999996,40 z"
         sodipodi:ry="40"
         sodipodi:rx="40"
         sodipodi:cy="163.79076"
         sodipodi:cx="-101.42857"
         id="path2993-3-051"
         style="fill:#ffffff;fill-opacity:1;stroke:none"
         sodipodi:type="arc" />
      <path
         transform="matrix(0.5,0,0,0.5,219.00005,129.55547)"
         d="m -61.428574,163.79076 c 0,22.09139 -17.90861,40 -39.999996,40 -22.09139,0 -40,-17.90861 -40,-40 0,-22.09139 17.90861,-40 40,-40 22.091386,0 39.999996,17.90861 39.999996,40 z"
         sodipodi:ry="40"
         sodipodi:rx="40"
         sodipodi:cy="163.79076"
         sodipodi:cx="-101.42857"
         id="path2993-33-20"
         style="fill:#ffffff;fill-opacity:1;stroke:none"
         sodipodi:type="arc" />
      <path
         transform="matrix(0.5,0,0,0.5,305.00005,129.55547)"
         d="m -61.428574,163.79076 c 0,22.09139 -17.90861,40 -39.999996,40 -22.09139,0 -40,-17.90861 -40,-40 0,-22.09139 17.90861,-40 40,-40 22.091386,0 39.999996,17.90861 39.999996,40 z"
         sodipodi:ry="40"
         sodipodi:rx="40"
         sodipodi:cy="163.79076"
         sodipodi:cx="-101.42857"
         id="path2993-7-3"
         style="fill:#ffffff;fill-opacity:1;stroke:none"
         sodipodi:type="arc" />
      <path
         transform="matrix(0.5,0,0,0.5,348.00005,129.55547)"
         d="m -61.428574,163.79076 c 0,22.09139 -17.90861,40 -39.999996,40 -22.09139,0 -40,-17.90861 -40,-40 0,-22.09139 17.90861,-40 40,-40 22.091386,0 39.999996,17.90861 39.999996,40 z"
         sodipodi:ry="40"
         sodipodi:rx="40"
         sodipodi:cy="163.79076"
         sodipodi:cx="-101.42857"
         id="path2993-6-70"
         style="fill:#ffffff;fill-opacity:1;stroke:none"
         sodipodi:type="arc" />
      <path
         transform="matrix(0.5,0,0,0.5,434.00005,129.55547)"
         d="m -61.428574,163.79076 c 0,22.09139 -17.90861,40 -39.999996,40 -22.09139,0 -40,-17.90861 -40,-40 0,-22.09139 17.90861,-40 40,-40 22.091386,0 39.999996,17.90861 39.999996,40 z"
         sodipodi:ry="40"
         sodipodi:rx="40"
         sodipodi:cy="163.79076"
         sodipodi:cx="-101.42857"
         id="path2993-0-82"
         style="fill:#ffffff;fill-opacity:1;stroke:none"
         sodipodi:type="arc" />
      <path
         transform="matrix(0.5,0,0,0.5,391.00005,129.55547)"
         d="m -61.428574,163.79076 c 0,22.09139 -17.90861,40 -39.999996,40 -22.09139,0 -40,-17.90861 -40,-40 0,-22.09139 17.90861,-40 40,-40 22.091386,0 39.999996,17.90861 39.999996,40 z"
         sodipodi:ry="40"
         sodipodi:rx="40"
         sodipodi:cy="163.79076"
         sodipodi:cx="-101.42857"
         id="path2993-75-5"
         style="fill:#ffffff;fill-opacity:1;stroke:none"
         sodipodi:type="arc" />
      <path
         transform="matrix(0.5,0,0,0.5,133.00005,42.310498)"
         d="m -61.428574,163.79076 c 0,22.09139 -17.90861,40 -39.999996,40 -22.09139,0 -40,-17.90861 -40,-40 0,-22.09139 17.90861,-40 40,-40 22.091386,0 39.999996,17.90861 39.999996,40 z"
         sodipodi:ry="40"
         sodipodi:rx="40"
         sodipodi:cy="163.79076"
         sodipodi:cx="-101.42857"
         id="path2993-4"
         style="fill:#ffffff;fill-opacity:1;stroke:none"
         sodipodi:type="arc" />
      <path
         transform="matrix(0.5,0,0,0.5,176.00005,42.310498)"
         d="m -61.428574,163.79076 c 0,22.09139 -17.90861,40 -39.999996,40 -22.09139,0 -40,-17.90861 -40,-40 0,-22.09139 17.90861,-40 40,-40 22.091386,0 39.999996,17.90861 39.999996,40 z"
         sodipodi:ry="40"
         sodipodi:rx="40"
         sodipodi:cy="163.79076"
         sodipodi:cx="-101.42857"
         id="path2993-2-13"
         style="fill:#ffffff;fill-opacity:1;stroke:none"
         sodipodi:type="arc" />
      <path
         transform="matrix(0.5,0,0,0.5,262.00005,42.310498)"
         d="m -61.428574,163.79076 c 0,22.09139 -17.90861,40 -39.999996,40 -22.09139,0 -40,-17.90861 -40,-40 0,-22.09139 17.90861,-40 40,-40 22.091386,0 39.999996,17.90861 39.999996,40 z"
         sodipodi:ry="40"
         sodipodi:rx="40"
         sodipodi:cy="163.79076"
         sodipodi:cx="-101.42857"
         id="path2993-3-7"
         style="fill:#ffffff;fill-opacity:1;stroke:none"
         sodipodi:type="arc" />
      <path
         transform="matrix(0.5,0,0,0.5,219.00005,42.310498)"
         d="m -61.428574,163.79076 c 0,22.09139 -17.90861,40 -39.999996,40 -22.09139,0 -40,-17.90861 -40,-40 0,-22.09139 17.90861,-40 40,-40 22.091386,0 39.999996,17.90861 39.999996,40 z"
         sodipodi:ry="40"
         sodipodi:rx="40"
         sodipodi:cy="163.79076"
         sodipodi:cx="-101.42857"
         id="path2993-33-8"
         style="fill:#ffffff;fill-opacity:1;stroke:none"
         sodipodi:type="arc" />
      <path
         transform="matrix(0.5,0,0,0.5,305.00005,42.310498)"
         d="m -61.428574,163.79076 c 0,22.09139 -17.90861,40 -39.999996,40 -22.09139,0 -40,-17.90861 -40,-40 0,-22.09139 17.90861,-40 40,-40 22.091386,0 39.999996,17.90861 39.999996,40 z"
         sodipodi:ry="40"
         sodipodi:rx="40"
         sodipodi:cy="163.79076"
         sodipodi:cx="-101.42857"
         id="path2993-7-4"
         style="fill:#ffffff;fill-opacity:1;stroke:none"
         sodipodi:type="arc" />
      <path
         transform="matrix(0.5,0,0,0.5,348.00005,42.310498)"
         d="m -61.428574,163.79076 c 0,22.09139 -17.90861,40 -39.999996,40 -22.09139,0 -40,-17.90861 -40,-40 0,-22.09139 17.90861,-40 40,-40 22.091386,0 39.999996,17.90861 39.999996,40 z"
         sodipodi:ry="40"
         sodipodi:rx="40"
         sodipodi:cy="163.79076"
         sodipodi:cx="-101.42857"
         id="path2993-6-76"
         style="fill:#ffffff;fill-opacity:1;stroke:none"
         sodipodi:type="arc" />
      <path
         transform="matrix(0.5,0,0,0.5,434.00005,42.310498)"
         d="m -61.428574,163.79076 c 0,22.09139 -17.90861,40 -39.999996,40 -22.09139,0 -40,-17.90861 -40,-40 0,-22.09139 17.90861,-40 40,-40 22.091386,0 39.999996,17.90861 39.999996,40 z"
         sodipodi:ry="40"
         sodipodi:rx="40"
         sodipodi:cy="163.79076"
         sodipodi:cx="-101.42857"
         id="path2993-0-4"
         style="fill:#ffffff;fill-opacity:1;stroke:none"
         sodipodi:type="arc" />
      <path
         transform="matrix(0.5,0,0,0.5,391.00005,42.310498)"
         d="m -61.428574,163.79076 c 0,22.09139 -17.90861,40 -39.999996,40 -22.09139,0 -40,-17.90861 -40,-40 0,-22.09139 17.90861,-40 40,-40 22.091386,0 39.999996,17.90861 39.999996,40 z"
         sodipodi:ry="40"
         sodipodi:rx="40"
         sodipodi:cy="163.79076"
         sodipodi:cx="-101.42857"
         id="path2993-75-75"
         style="fill:#ffffff;fill-opacity:1;stroke:none"
         sodipodi:type="arc" />
      <path
         transform="matrix(0.5,0,0,0.5,133.00005,260.42292)"
         d="m -61.428574,163.79076 c 0,22.09139 -17.90861,40 -39.999996,40 -22.09139,0 -40,-17.90861 -40,-40 0,-22.09139 17.90861,-40 40,-40 22.091386,0 39.999996,17.90861 39.999996,40 z"
         sodipodi:ry="40"
         sodipodi:rx="40"
         sodipodi:cy="163.79076"
         sodipodi:cx="-101.42857"
         id="path2993-1"
         style="fill:#ffffff;fill-opacity:1;stroke:none"
         sodipodi:type="arc" />
      <path
         transform="matrix(0.5,0,0,0.5,176.00005,260.42292)"
         d="m -61.428574,163.79076 c 0,22.09139 -17.90861,40 -39.999996,40 -22.09139,0 -40,-17.90861 -40,-40 0,-22.09139 17.90861,-40 40,-40 22.091386,0 39.999996,17.90861 39.999996,40 z"
         sodipodi:ry="40"
         sodipodi:rx="40"
         sodipodi:cy="163.79076"
         sodipodi:cx="-101.42857"
         id="path2993-2-72"
         style="fill:#ffffff;fill-opacity:1;stroke:none"
         sodipodi:type="arc" />
      <path
         transform="matrix(0.5,0,0,0.5,262.00005,260.42292)"
         d="m -61.428574,163.79076 c 0,22.09139 -17.90861,40 -39.999996,40 -22.09139,0 -40,-17.90861 -40,-40 0,-22.09139 17.90861,-40 40,-40 22.091386,0 39.999996,17.90861 39.999996,40 z"
         sodipodi:ry="40"
         sodipodi:rx="40"
         sodipodi:cy="163.79076"
         sodipodi:cx="-101.42857"
         id="path2993-3-3"
         style="fill:#ffffff;fill-opacity:1;stroke:none"
         sodipodi:type="arc" />
      <path
         transform="matrix(0.5,0,0,0.5,219.00005,260.42292)"
         d="m -61.428574,163.79076 c 0,22.09139 -17.90861,40 -39.999996,40 -22.09139,0 -40,-17.90861 -40,-40 0,-22.09139 17.90861,-40 40,-40 22.091386,0 39.999996,17.90861 39.999996,40 z"
         sodipodi:ry="40"
         sodipodi:rx="40"
         sodipodi:cy="163.79076"
         sodipodi:cx="-101.42857"
         id="path2993-33-7"
         style="fill:#ffffff;fill-opacity:1;stroke:none"
         sodipodi:type="arc" />
      <path
         transform="matrix(0.5,0,0,0.5,305.00005,260.42292)"
         d="m -61.428574,163.79076 c 0,22.09139 -17.90861,40 -39.999996,40 -22.09139,0 -40,-17.90861 -40,-40 0,-22.09139 17.90861,-40 40,-40 22.091386,0 39.999996,17.90861 39.999996,40 z"
         sodipodi:ry="40"
         sodipodi:rx="40"
         sodipodi:cy="163.79076"
         sodipodi:cx="-101.42857"
         id="path2993-7-2"
         style="fill:#ffffff;fill-opacity:1;stroke:none"
         sodipodi:type="arc" />
      <path
         transform="matrix(0.5,0,0,0.5,348.00005,260.42292)"
         d="m -61.428574,163.79076 c 0,22.09139 -17.90861,40 -39.999996,40 -22.09139,0 -40,-17.90861 -40,-40 0,-22.09139 17.90861,-40 40,-40 22.091386,0 39.999996,17.90861 39.999996,40 z"
         sodipodi:ry="40"
         sodipodi:rx="40"
         sodipodi:cy="163.79076"
         sodipodi:cx="-101.42857"
         id="path2993-6-1"
         style="fill:#ffffff;fill-opacity:1;stroke:none"
         sodipodi:type="arc" />
      <path
         transform="matrix(0.5,0,0,0.5,434.00005,260.42292)"
         d="m -61.428574,163.79076 c 0,22.09139 -17.90861,40 -39.999996,40 -22.09139,0 -40,-17.90861 -40,-40 0,-22.09139 17.90861,-40 40,-40 22.091386,0 39.999996,17.90861 39.999996,40 z"
         sodipodi:ry="40"
         sodipodi:rx="40"
         sodipodi:cy="163.79076"
         sodipodi:cx="-101.42857"
         id="path2993-0-85"
         style="fill:#ffffff;fill-opacity:1;stroke:none"
         sodipodi:type="arc" />
      <path
         transform="matrix(0.5,0,0,0.5,391.00005,260.42292)"
         d="m -61.428574,163.79076 c 0,22.09139 -17.90861,40 -39.999996,40 -22.09139,0 -40,-17.90861 -40,-40 0,-22.09139 17.90861,-40 40,-40 22.091386,0 39.999996,17.90861 39.999996,40 z"
         sodipodi:ry="40"
         sodipodi:rx="40"
         sodipodi:cy="163.79076"
         sodipodi:cx="-101.42857"
         id="path2993-75-3"
         style="fill:#ffffff;fill-opacity:1;stroke:none"
         sodipodi:type="arc" />
      <path
         transform="matrix(0.5,0,0,0.5,133.00005,304.0454)"
         d="m -61.428574,163.79076 c 0,22.09139 -17.90861,40 -39.999996,40 -22.09139,0 -40,-17.90861 -40,-40 0,-22.09139 17.90861,-40 40,-40 22.091386,0 39.999996,17.90861 39.999996,40 z"
         sodipodi:ry="40"
         sodipodi:rx="40"
         sodipodi:cy="163.79076"
         sodipodi:cx="-101.42857"
         id="path2993-51"
         style="fill:#ffffff;fill-opacity:1;stroke:none"
         sodipodi:type="arc" />
      <path
         transform="matrix(0.5,0,0,0.5,176.00005,304.0454)"
         d="m -61.428574,163.79076 c 0,22.09139 -17.90861,40 -39.999996,40 -22.09139,0 -40,-17.90861 -40,-40 0,-22.09139 17.90861,-40 40,-40 22.091386,0 39.999996,17.90861 39.999996,40 z"
         sodipodi:ry="40"
         sodipodi:rx="40"
         sodipodi:cy="163.79076"
         sodipodi:cx="-101.42857"
         id="path2993-2-73"
         style="fill:#ffffff;fill-opacity:1;stroke:none"
         sodipodi:type="arc" />
      <path
         transform="matrix(0.5,0,0,0.5,262.00005,304.0454)"
         d="m -61.428574,163.79076 c 0,22.09139 -17.90861,40 -39.999996,40 -22.09139,0 -40,-17.90861 -40,-40 0,-22.09139 17.90861,-40 40,-40 22.091386,0 39.999996,17.90861 39.999996,40 z"
         sodipodi:ry="40"
         sodipodi:rx="40"
         sodipodi:cy="163.79076"
         sodipodi:cx="-101.42857"
         id="path2993-3-6"
         style="fill:#ffffff;fill-opacity:1;stroke:none"
         sodipodi:type="arc" />
      <path
         transform="matrix(0.5,0,0,0.5,219.00005,304.0454)"
         d="m -61.428574,163.79076 c 0,22.09139 -17.90861,40 -39.999996,40 -22.09139,0 -40,-17.90861 -40,-40 0,-22.09139 17.90861,-40 40,-40 22.091386,0 39.999996,17.90861 39.999996,40 z"
         sodipodi:ry="40"
         sodipodi:rx="40"
         sodipodi:cy="163.79076"
         sodipodi:cx="-101.42857"
         id="path2993-33-1"
         style="fill:#ffffff;fill-opacity:1;stroke:none"
         sodipodi:type="arc" />
      <path
         transform="matrix(0.5,0,0,0.5,305.00005,304.0454)"
         d="m -61.428574,163.79076 c 0,22.09139 -17.90861,40 -39.999996,40 -22.09139,0 -40,-17.90861 -40,-40 0,-22.09139 17.90861,-40 40,-40 22.091386,0 39.999996,17.90861 39.999996,40 z"
         sodipodi:ry="40"
         sodipodi:rx="40"
         sodipodi:cy="163.79076"
         sodipodi:cx="-101.42857"
         id="path2993-7-6"
         style="fill:#ffffff;fill-opacity:1;stroke:none"
         sodipodi:type="arc" />
      <path
         transform="matrix(0.5,0,0,0.5,348.00005,304.0454)"
         d="m -61.428574,163.79076 c 0,22.09139 -17.90861,40 -39.999996,40 -22.09139,0 -40,-17.90861 -40,-40 0,-22.09139 17.90861,-40 40,-40 22.091386,0 39.999996,17.90861 39.999996,40 z"
         sodipodi:ry="40"
         sodipodi:rx="40"
         sodipodi:cy="163.79076"
         sodipodi:cx="-101.42857"
         id="path2993-6-6"
         style="fill:#ffffff;fill-opacity:1;stroke:none"
         sodipodi:type="arc" />
      <path
         transform="matrix(0.5,0,0,0.5,434.00005,304.0454)"
         d="m -61.428574,163.79076 c 0,22.09139 -17.90861,40 -39.999996,40 -22.09139,0 -40,-17.90861 -40,-40 0,-22.09139 17.90861,-40 40,-40 22.091386,0 39.999996,17.90861 39.999996,40 z"
         sodipodi:ry="40"
         sodipodi:rx="40"
         sodipodi:cy="163.79076"
         sodipodi:cx="-101.42857"
         id="path2993-0-9"
         style="fill:#ffffff;fill-opacity:1;stroke:none"
         sodipodi:type="arc" />
      <path
         transform="matrix(0.5,0,0,0.5,391.00005,304.0454)"
         d="m -61.428574,163.79076 c 0,22.09139 -17.90861,40 -39.999996,40 -22.09139,0 -40,-17.90861 -40,-40 0,-22.09139 17.90861,-40 40,-40 22.091386,0 39.999996,17.90861 39.999996,40 z"
         sodipodi:ry="40"
         sodipodi:rx="40"
         sodipodi:cy="163.79076"
         sodipodi:cx="-101.42857"
         id="path2993-75-237"
         style="fill:#ffffff;fill-opacity:1;stroke:none"
         sodipodi:type="arc" />
    </g>
  </g>
</svg>
